<svg t="1695030392259" viewBox="0 0 1024 1024" version="1.1"
    xmlns="http://www.w3.org/2000/svg" p-id="14009" width="20" height="20">
    <path d="M512 1024H39.936A39.936 39.936 0 0 1 0 984.064V512a512 512 0 1 1 512 512z m0-944.128A432.128 432.128 0 0 0 79.872 512v432.128H512a432.128 432.128 0 0 0 0-864.256z m-84.650667 657.749333h36.522667v-285.354666h-39.253333v-11.946667h162.816v297.301333h37.205333V750.933333h-197.290667z m98.986667-341.333333c-53.930667 0-66.56-34.133333-66.56-60.416s18.090667-60.074667 68.266667-60.074667c40.96 0 65.536 20.138667 65.536 59.733334-0.341333 33.450667-19.456 60.074667-67.242667 60.074666z" fill="#7787AC" p-id="14010"></path>
</svg>