<svg t="1695030287034" viewBox="0 0 1024 1024" version="1.1"
    xmlns="http://www.w3.org/2000/svg" p-id="6112" width="24" height="24">
    <path d="M512 960C265.6 960 64 758.4 64 512S265.6 64 512 64s448 201.6 448 448-201.6 448-448 448z m0-832C300.8 128 128 300.8 128 512s172.8 384 384 384 384-172.8 384-384S723.2 128 512 128z" fill="#333333" p-id="6113"></path>
    <path d="M512 576c-17.6 0-32-14.4-32-32V320c0-17.6 14.4-32 32-32s32 14.4 32 32v224c0 17.6-14.4 32-32 32zM512 736c-17.6 0-32-14.4-32-32v-32c0-17.6 14.4-32 32-32s32 14.4 32 32v32c0 17.6-14.4 32-32 32z" fill="#333333" p-id="6114"></path>
</svg>