<svg t="1695027702514" viewBox="0 0 1024 1024" version="1.1"
    xmlns="http://www.w3.org/2000/svg" p-id="4048" width="22" height="22">
    <path d="M860.225471 946.734242 169.838641 946.734242c-56.482409 0-102.279455-45.302789-102.279455-101.288894L67.559187 212.371852c0-55.995315 45.797046-101.352339 102.279455-101.352339l127.84676 0L297.685401 98.362238c0-20.971637-8.387018-37.988196 12.787234-37.988196 21.193695 0 38.355563 17.015535 38.355563 37.988196l0 12.657274 332.415902 0L681.2441 98.362238c0-20.971637 17.180288-37.988196 38.34533-37.988196 21.167089 0 12.789281 17.015535 12.789281 37.988196l0 12.657274L860.225471 111.019513c56.491619 0 102.287641 45.358047 102.287641 101.352339l0 633.072473C962.513112 901.431453 916.71709 946.734242 860.225471 946.734242L860.225471 946.734242zM911.360082 212.326826c0-27.965935-22.870894-50.653657-51.134611-50.653657L732.378711 161.67317l0 37.988196c0 20.971637-17.181311 37.988196-38.365796 37.988196-21.166065 0-12.768815-17.016559-12.768815-37.988196l0-37.988196L348.828198 161.67317l0 37.988196c0 20.971637-17.161868 37.988196-38.355563 37.988196-21.174252 0-12.787234-17.016559-12.787234-37.988196l0-37.988196L169.838641 161.67317c-28.227901 0-51.135634 22.687722-51.135634 50.653657l0 633.118522c0 27.974122 22.907733 50.64547 51.135634 50.64547L860.225471 896.090818c28.263717 0 51.134611-22.671349 51.134611-50.64547L911.360082 212.326826 911.360082 212.326826zM502.270916 678.166507c-1.251503 3.121084-3.123131 6.02011-5.671163 8.55484-5.579065 5.560646-13.065574 7.635911-20.3597 6.974855-6.569626 0.053212-13.167904-2.387373-18.153452-7.323802-1.687432-1.671059-2.687202-3.745301-3.781116-5.690606L304.718585 533.868053c-9.998725-9.892301-9.998725-25.898857 0-35.811624 9.998725-9.904581 26.1598-9.904581 36.159548 0l136.290059 133.74305 237.715053-234.710626c9.897418-9.847276 25.984814-9.847276 35.845393 0 9.951653 9.848299 9.951653 25.836435 0 35.656081L502.270916 678.166507 502.270916 678.166507z" fill="#272536" p-id="4049"></path>
</svg>