<svg t="1695030426912" viewBox="0 0 1024 1024" version="1.1"
    xmlns="http://www.w3.org/2000/svg" p-id="14998" width="18" height="18">
    <path d="M870.9056 475.4304c0-218.4192-177.0624-395.4752-395.4752-395.4752-218.4192 0-395.4752 177.056-395.4752 395.4752 0 218.4128 177.056 395.4752 395.4752 395.4752 218.3296-0.2048 395.264-177.152 395.4752-395.4752z m79.9488 0c0 262.5664-212.8512 475.424-475.424 475.424C212.8576 950.8544 0 738.0032 0 475.4304 0 212.8576 212.8576 0 475.4304 0c262.5664 0 475.424 212.8576 475.424 475.4304z m-135.5392 391.744a36.672 36.672 0 0 1 51.8592-51.8592l146.0864 146.0864a36.672 36.672 0 0 1-51.8592 51.8592l-146.0864-146.0864z" fill="#333333" p-id="14999"></path>
</svg>