<svg t="1697958862273" class="icon" viewBox="0 0 1024 1024" version="1.1" xmlns="http://www.w3.org/2000/svg" p-id="6835" width="64" height="64"><path d="M476.16 704.32a32 32 0 0 1-25.28-11.392L327.488 567.808a32 32 0 1 1 49.024-41.152l97.536 98.88L657.92 395.52a32 32 0 1 1 49.024 41.088l-204.8 256.384a32 32 0 0 1-25.92 11.392zM64 156.544c182.656 0 331.968-52.16 448-156.544 116.8 104.32 266.112 156.544 448 156.544v355.392s0 219.84-148.352 369.472C665.408 1024 512 1024 512 1024s-151.36 0-294.272-142.592C115.264 786.688 64 663.488 64 512V156.544z m448.832-66.432C403.072 169.6 274.432 209.28 126.912 209.28c-1.216 0.128-1.216 141.312 0 302.848 0 324.864 321.472 449.472 385.792 449.472 64.384 0 386.752-130.048 386.752-449.472V209.344c-151.488 0-280.32-39.68-386.624-119.232z" fill="#303133" p-id="6836"></path></svg>