<svg t="1697963797652" class="icon" viewBox="0 0 1024 1024" version="1.1" xmlns="http://www.w3.org/2000/svg" p-id="7812" width="64" height="64"><path d="M0 511.232c0 282.3168 228.864 511.2064 511.232 511.2064 282.3168 0 511.2064-228.864 511.2064-511.232C1022.4384 228.9152 793.5744 0 511.2064 0 228.9152 0 0 228.864 0 511.232z" fill="#57CF76" p-id="7813"></path><path d="M578.688 510.7968c-11.6736 0-23.3216 10.8288-23.3216 24.1664 0 10.8288 11.648 21.6576 23.296 21.6576 17.5104 0 30.0032-10.8288 30.0032-21.6576 0-13.312-12.4928-24.1664-29.9776-24.1664z m-76.6208-112.4352c18.304 0 29.9776-11.6736 29.9776-29.1584 0-18.3296-11.6736-29.1584-29.9776-29.1584-17.5104 0-34.1504 10.8288-34.1504 29.184 0 17.4848 16.64 29.1328 34.1504 29.1328z m-87.4752 242.3808c-30.8224 0-53.2992-4.992-82.432-13.312l-84.1472 42.4704 24.1664-71.6544c-59.136-41.6256-94.1312-94.1056-94.1312-158.2336 0-113.28 106.624-199.9104 236.544-199.9104 114.944 0 217.3952 68.3008 237.3888 164.9152a115.5328 115.5328 0 0 0-22.4768-2.4832c-113.28 0-200.7296 84.9408-200.7296 187.392 0 17.4848 2.4832 33.3312 6.656 49.9712-6.656 0.8448-14.1568 0.8448-20.8384 0.8448z m347.3408 81.6128l16.64 59.9808-63.2832-35.8144c-24.1664 4.992-47.488 12.4928-71.6288 12.4928-111.616 0-199.9104-76.6208-199.9104-171.5712 0-94.976 88.2944-171.5968 199.9104-171.5968 105.7792 0 200.704 76.6464 200.704 171.5968 0 53.2992-35.7888 100.7616-82.432 134.912zM337.152 340.0448c-17.5104 0-35.84 10.8288-35.84 29.184 0 17.4848 18.3296 29.1328 35.84 29.1328 16.64 0 29.952-11.648 29.952-29.1584 0-18.3296-13.312-29.1584-29.952-29.1584z m372.3008 170.752c-12.4928 0-23.3216 10.8288-23.3216 24.1664 0 10.8288 10.8288 21.6576 23.3216 21.6576 16.64 0 29.1584-10.8288 29.1584-21.6576 0-13.312-12.4928-24.1664-29.1584-24.1664z" fill="#FFFFFF" p-id="7814"></path></svg>